<svg width="172" height="50" viewBox="0 0 172 50" fill="none" xmlns="http://www.w3.org/2000/svg">
<path d="M166.895 2.59835L152.687 0.0895738C149.505 -0.470114 146.471 1.65081 145.912 4.8371L141.866 27.7843C141.307 30.9657 143.427 33.9998 146.614 34.5595L160.827 37.0634C164.008 37.623 167.042 35.5021 167.602 32.3158L171.648 9.36861C172.207 6.18723 170.086 3.15313 166.9 2.59344L166.895 2.59835ZM149.736 11.2048C149.869 10.4585 150.158 9.82029 150.6 9.29988C151.047 8.77456 151.592 8.39161 152.25 8.15105C152.908 7.89084 153.595 7.82211 154.317 7.94976C155.053 8.0774 155.687 8.38179 156.217 8.8482C156.767 9.30479 157.159 9.84975 157.4 10.4978C157.641 11.141 157.695 11.8381 157.562 12.5844C157.434 13.3159 157.135 13.9492 156.668 14.4844C156.222 15.0244 155.667 15.427 155.009 15.6872C154.371 15.9327 153.679 15.9867 152.923 15.8541C152.22 15.7314 151.597 15.4417 151.047 14.9851C150.517 14.5138 150.134 13.9492 149.898 13.2864C149.663 12.6236 149.609 11.9265 149.736 11.1999V11.2048ZM163.773 25.9236C163.64 26.6698 163.341 27.313 162.874 27.853C162.427 28.3784 161.878 28.7662 161.22 29.0264C160.581 29.2719 159.889 29.3259 159.133 29.1934C158.411 29.0657 157.788 28.776 157.258 28.3244C156.727 27.853 156.335 27.2983 156.079 26.6502C155.844 25.9874 155.79 25.2854 155.922 24.5342C156.055 23.783 156.344 23.1497 156.786 22.6293C157.248 22.1089 157.798 21.7259 158.436 21.4805C159.094 21.2203 159.791 21.1564 160.527 21.2841C161.264 21.4166 161.897 21.7161 162.427 22.1825C162.958 22.6342 163.345 23.1792 163.586 23.8272C163.841 24.4753 163.905 25.1724 163.773 25.9187V25.9236ZM150.851 27.4554L147.507 26.8662L162.658 9.70737L166.002 10.2965L150.851 27.4554Z" fill="#FFFD73"/>
<path d="M70.8791 24.5931C72.1457 25.8303 73.6186 26.8073 75.2928 27.5143C76.9915 28.2213 78.8178 28.5748 80.7718 28.5748C82.7258 28.5748 84.5227 28.2213 86.1723 27.5143C87.8465 26.8073 89.3046 25.8352 90.5467 24.5931C91.8134 23.3314 92.8051 21.8634 93.5121 20.1942C94.224 18.5249 94.5775 16.728 94.5775 14.8084C94.5775 12.8888 94.224 11.0919 93.5121 9.42262C92.8002 7.75337 91.8134 6.30015 90.5467 5.06294C89.3046 3.79628 87.8465 2.82419 86.1723 2.14177C84.4982 1.43479 82.6718 1.0813 80.6933 1.0813C78.7147 1.0813 76.9276 1.43479 75.2535 2.14177C73.5793 2.82419 72.1114 3.79628 70.8398 5.06294C69.5977 6.30015 68.6207 7.75337 67.9088 9.42262C67.2264 11.0673 66.8827 12.8495 66.8827 14.7691C66.8827 16.6887 67.2362 18.5004 67.9481 20.1942C68.66 21.8634 69.6321 23.3314 70.8791 24.5931ZM73.2406 10.105C73.977 8.76474 74.9786 7.72883 76.2452 6.99731C77.5364 6.23633 79.024 5.85829 80.6933 5.85829C81.9845 5.85829 83.1529 6.07431 84.1938 6.50144C85.2346 6.93348 86.133 7.55208 86.894 8.36216C87.655 9.14769 88.2392 10.0805 88.6418 11.1704C89.0493 12.2554 89.2506 13.4583 89.2506 14.774C89.2506 16.5709 88.8824 18.1371 88.146 19.4774C87.4341 20.8177 86.4473 21.8683 85.1806 22.6244C83.9139 23.3805 82.4165 23.7634 80.6933 23.7634C79.4512 23.7634 78.2974 23.5474 77.232 23.1202C76.1912 22.6882 75.2928 22.0843 74.5318 21.2988C73.7953 20.5133 73.2111 19.5657 72.784 18.4562C72.3765 17.3417 72.1752 16.1192 72.1752 14.7789C72.1752 13.0115 72.5287 11.4552 73.2406 10.1149V10.105Z" fill="#FFFD73"/>
<path d="M109.591 17.5086V28.5747H114.859V16.35C114.859 15.044 114.54 13.8314 113.892 12.7169C113.248 11.573 112.365 10.6549 111.24 9.96266C110.116 9.24587 108.84 8.88256 107.421 8.88256C106.002 8.88256 104.622 9.20168 103.439 9.83992C102.816 10.1836 102.271 10.6107 101.79 11.1017V8.88256H96.5216V28.5797H101.79V17.5135C101.79 16.7427 101.952 16.0603 102.271 15.4761C102.619 14.8918 103.086 14.4353 103.68 14.1161C104.269 13.797 104.941 13.635 105.688 13.635C106.841 13.635 107.779 13.9934 108.501 14.7151C109.223 15.4319 109.586 16.3647 109.586 17.5135L109.591 17.5086Z" fill="#FFFD73"/>
<path d="M123.19 27.7549C124.796 28.452 126.588 28.7122 128.561 28.5404C130.093 28.4078 131.487 28.0102 132.739 27.3523C134.016 26.6895 135.062 25.7861 135.881 24.6422L132.617 21.9027C132.101 22.6047 131.468 23.1546 130.722 23.5621C129.97 23.9401 129.111 24.1758 128.149 24.2593C127.084 24.3525 126.131 24.2151 125.287 23.842C124.442 23.4443 123.76 22.8502 123.244 22.0549C123.048 21.7308 122.896 21.3675 122.763 20.9944L136.515 19.7572C136.579 19.3055 136.613 18.9128 136.608 18.5691C136.628 18.2009 136.623 17.8474 136.593 17.5086C136.436 15.7167 135.896 14.1554 134.963 12.82C134.06 11.4601 132.872 10.4389 131.394 9.75647C129.946 9.04459 128.311 8.76965 126.49 8.92676C124.644 9.08877 123.009 9.67792 121.58 10.6893C120.146 11.681 119.056 12.9526 118.3 14.5089C117.569 16.0407 117.289 17.7394 117.451 19.6099C117.618 21.505 118.207 23.1546 119.218 24.5587C120.259 25.958 121.58 27.0233 123.19 27.745V27.7549ZM122.69 16.1732C123.033 15.3043 123.563 14.6169 124.275 14.1112C124.987 13.5761 125.851 13.2668 126.863 13.1784C127.825 13.095 128.65 13.2324 129.332 13.5908C130.044 13.9198 130.599 14.45 131.001 15.1717C131.208 15.5203 131.379 15.913 131.522 16.35L122.424 17.1748C122.483 16.8262 122.567 16.4875 122.685 16.1782L122.69 16.1732Z" fill="#FFFD73"/>
<path d="M22.8147 1.07639H0V5.79937H8.73408V28.5748H14.0806V5.79937H22.8147V1.07639Z" fill="#FFFD73"/>
<path d="M35.1474 10.2425C33.6402 9.35879 31.9219 8.91693 29.9973 8.91693C28.0728 8.91693 26.4232 9.35879 24.8865 10.2425C23.3547 11.1017 22.142 12.2702 21.2583 13.7528C20.3746 15.211 19.9328 16.8606 19.9328 18.7066C19.9328 20.5526 20.3746 22.2316 21.2583 23.7388C22.1666 25.2215 23.3793 26.4047 24.8865 27.2884C26.4183 28.1476 28.1366 28.5747 30.0366 28.5747C31.9366 28.5747 33.6402 28.1476 35.1474 27.2884C36.6792 26.4047 37.8919 25.2215 38.7756 23.7388C39.6593 22.2316 40.1012 20.5526 40.1012 18.7066C40.1012 16.8606 39.6593 15.211 38.7756 13.7528C37.8919 12.2702 36.6841 11.1017 35.1474 10.2425ZM34.249 21.397C33.8611 22.1531 33.2867 22.7471 32.5306 23.189C31.804 23.6063 30.9596 23.8125 29.9973 23.8125C29.035 23.8125 28.2299 23.6063 27.5033 23.189C26.7767 22.7471 26.2022 22.1482 25.7849 21.397C25.3676 20.6164 25.1614 19.7327 25.1614 18.7458C25.1614 17.759 25.3676 16.8851 25.7849 16.134C26.2022 15.3779 26.7717 14.7937 27.5033 14.3813C28.2299 13.9394 29.0645 13.7185 29.9973 13.7185C30.9301 13.7185 31.804 13.9394 32.5306 14.3813C33.2573 14.7986 33.8317 15.3828 34.249 16.134C34.6663 16.89 34.8725 17.759 34.8725 18.7458C34.8725 19.7327 34.6663 20.6164 34.249 21.397Z" fill="#FFFD73"/>
<path d="M58.5856 10.2621C57.206 9.40297 55.6497 8.97584 53.9068 8.97584C52.5567 8.97584 51.3342 9.2606 50.2394 9.83501C49.6109 10.1738 49.0562 10.5911 48.5603 11.0771V8.88256H43.4495V36.1845H48.521V26.5324C49.0169 27.0135 49.5815 27.4357 50.2394 27.7794C51.3293 28.3244 52.5518 28.5993 53.9068 28.5993C55.6497 28.5993 57.2109 28.1722 58.5856 27.313C59.9652 26.4538 61.0404 25.2854 61.821 23.8027C62.6261 22.32 63.0287 20.6557 63.0287 18.8097C63.0287 16.9637 62.6261 15.2601 61.821 13.7774C61.0404 12.2947 59.9603 11.1262 58.5856 10.2671V10.2621ZM57.1815 21.4559C56.7936 22.212 56.2339 22.806 55.5024 23.2479C54.7758 23.6652 53.9412 23.8714 53.0084 23.8714C52.0755 23.8714 51.2409 23.6652 50.5143 23.2479C49.8122 22.806 49.2525 22.2071 48.8352 21.4559C48.4474 20.6753 48.251 19.7768 48.251 18.7655C48.251 17.7541 48.4474 16.9048 48.8352 16.1536C49.2525 15.373 49.8221 14.774 50.5536 14.3616C51.2802 13.9198 52.1001 13.6988 53.0084 13.6988C53.9166 13.6988 54.7758 13.9198 55.5024 14.3616C56.229 14.7789 56.7887 15.3779 57.1815 16.1536C57.5988 16.9097 57.805 17.7787 57.805 18.7655C57.805 19.7523 57.5988 20.6753 57.1815 21.4559Z" fill="#FFFD73"/>
<path d="M75.6757 36.7197H67.2068V38.4724H70.4471V46.8972H72.4305V38.4724H75.6757V36.7197Z" fill="#FFFD73"/>
<path d="M80.0992 40.2006C79.5837 39.8962 78.9848 39.744 78.3121 39.744C77.6395 39.744 77.0062 39.906 76.4465 40.23C75.8868 40.554 75.445 40.9861 75.1209 41.531C74.7969 42.076 74.6349 42.6946 74.6349 43.3918C74.6349 44.0889 74.8018 44.7222 75.1357 45.2721C75.4695 45.822 75.9212 46.254 76.4907 46.5682C77.0602 46.8824 77.7132 47.0395 78.4447 47.0395C79.0142 47.0395 79.5444 46.9364 80.0305 46.7352C80.5165 46.5339 80.9289 46.2344 81.2677 45.8367L80.1532 44.7222C79.9421 44.9628 79.6917 45.1445 79.4021 45.2672C79.1124 45.3899 78.7884 45.4489 78.43 45.4489C78.0323 45.4489 77.6886 45.3654 77.3892 45.1936C77.0897 45.0266 76.8589 44.7812 76.7018 44.4719C76.638 44.3491 76.5987 44.2117 76.5594 44.0742L81.6556 44.0595C81.6948 43.8974 81.7194 43.7502 81.7341 43.6176C81.7488 43.485 81.7537 43.3574 81.7537 43.2346C81.7537 42.567 81.6065 41.9729 81.3119 41.4476C81.0173 40.9223 80.6098 40.5049 80.0943 40.2006H80.0992ZM76.5545 42.6553C76.5889 42.5277 76.6233 42.4 76.6773 42.2871C76.8246 41.9827 77.0406 41.7471 77.3204 41.5801C77.6003 41.4132 77.9292 41.3248 78.3072 41.3248C78.6656 41.3248 78.9651 41.3985 79.2106 41.5507C79.4561 41.7029 79.6426 41.914 79.7752 42.1938C79.839 42.3264 79.8881 42.4786 79.9225 42.6455L76.5545 42.6553Z" fill="#FFFD73"/>
<path d="M87.0904 45.1101C86.8351 45.223 86.5454 45.277 86.2312 45.277C85.8827 45.277 85.5734 45.1985 85.2984 45.0364C85.0235 44.8793 84.8075 44.6535 84.6455 44.3688C84.4884 44.084 84.4049 43.76 84.4049 43.3917C84.4049 43.0235 84.4834 42.6897 84.6455 42.4147C84.8026 42.1398 85.0235 41.9238 85.2984 41.7618C85.5734 41.6047 85.8827 41.5212 86.2312 41.5212C86.5405 41.5212 86.8204 41.5752 87.0757 41.6783C87.331 41.7814 87.5519 41.9385 87.7336 42.1398L88.9511 40.9075C88.6124 40.5295 88.2147 40.2398 87.7483 40.0385C87.2868 39.8372 86.7762 39.7341 86.2263 39.7341C85.5194 39.7341 84.8811 39.8961 84.3067 40.2202C83.7323 40.5442 83.2806 40.9812 82.9517 41.531C82.6227 42.0809 82.4607 42.7044 82.4607 43.3967C82.4607 44.0889 82.6227 44.6977 82.9517 45.2476C83.2806 45.7974 83.7274 46.2344 84.2969 46.5486C84.8664 46.8677 85.5095 47.0248 86.2214 47.0248C86.7713 47.0248 87.277 46.9217 87.7434 46.7204C88.2049 46.5191 88.6173 46.2246 88.9757 45.8367L87.7434 44.6044C87.5617 44.8155 87.3408 44.9775 87.0855 45.0905L87.0904 45.1101Z" fill="#FFFD73"/>
<path d="M95.3433 40.1073C94.9309 39.8765 94.4645 39.7587 93.9294 39.7587C93.3943 39.7587 92.9278 39.8765 92.5154 40.1073C92.2994 40.23 92.108 40.3773 91.9459 40.5491V36.43H90.0508V46.8972H91.9459V42.8861C91.9459 42.6062 92.0048 42.3608 92.1276 42.1496C92.2503 41.9385 92.4123 41.7716 92.6284 41.6587C92.8395 41.5409 93.08 41.4869 93.3501 41.4869C93.7625 41.4869 94.1012 41.6145 94.3614 41.8796C94.6216 42.1398 94.7542 42.4786 94.7542 42.891V46.9021H96.6493V42.4737C96.6493 41.9434 96.5314 41.477 96.3007 41.0695C96.0699 40.6621 95.7459 40.3478 95.3384 40.1122L95.3433 40.1073Z" fill="#FFFD73"/>
<path d="M103.483 40.1416C103.076 39.8863 102.619 39.7587 102.109 39.7587C101.598 39.7587 101.102 39.8765 100.685 40.1073C100.459 40.2349 100.258 40.3871 100.086 40.5639V39.9011H98.1909V46.8923H100.086V42.8812C100.086 42.6013 100.145 42.3558 100.268 42.1447C100.39 41.9336 100.552 41.7667 100.768 41.6538C100.98 41.5359 101.22 41.4819 101.49 41.4819C101.903 41.4819 102.241 41.6096 102.501 41.8747C102.762 42.1349 102.894 42.4737 102.894 42.8861V46.8972H104.789V42.4688C104.789 41.9974 104.671 41.5556 104.441 41.1432C104.21 40.7308 103.891 40.4018 103.483 40.1465V40.1416Z" fill="#FFFD73"/>
<path d="M111.515 40.23C110.951 39.906 110.313 39.744 109.596 39.744C108.879 39.744 108.27 39.906 107.701 40.23C107.131 40.554 106.684 40.9861 106.355 41.531C106.027 42.076 105.865 42.6897 105.865 43.377C105.865 44.0644 106.031 44.683 106.365 45.2377C106.699 45.7925 107.146 46.2344 107.71 46.5535C108.275 46.8775 108.908 47.0395 109.615 47.0395C110.322 47.0395 110.956 46.8775 111.52 46.5535C112.085 46.2295 112.532 45.7925 112.861 45.2377C113.19 44.683 113.352 44.0644 113.352 43.377C113.352 42.6897 113.19 42.076 112.861 41.531C112.532 40.9861 112.085 40.5491 111.52 40.23H111.515ZM111.182 44.3688C111.034 44.6535 110.818 44.8744 110.543 45.0365C110.268 45.1936 109.954 45.277 109.596 45.277C109.237 45.277 108.938 45.1985 108.668 45.0365C108.398 44.8794 108.187 44.6535 108.03 44.3688C107.873 44.084 107.799 43.76 107.799 43.3918C107.799 43.0235 107.877 42.6995 108.03 42.4197C108.182 42.1398 108.398 41.9189 108.668 41.7618C108.938 41.6047 109.247 41.5212 109.596 41.5212C109.944 41.5212 110.268 41.5998 110.538 41.7618C110.808 41.9189 111.02 42.1398 111.177 42.4197C111.329 42.6995 111.407 43.0235 111.407 43.3918C111.407 43.76 111.334 44.084 111.182 44.3688Z" fill="#FFFD73"/>
<path d="M116.454 36.43H114.559V46.8972H116.454V36.43Z" fill="#FFFD73"/>
<path d="M123.328 40.23C122.763 39.906 122.125 39.744 121.408 39.744C120.691 39.744 120.083 39.906 119.513 40.23C118.944 40.554 118.497 40.9861 118.168 41.531C117.839 42.076 117.677 42.6897 117.677 43.377C117.677 44.0644 117.844 44.683 118.178 45.2377C118.511 45.7925 118.958 46.2344 119.523 46.5535C120.087 46.8775 120.721 47.0395 121.428 47.0395C122.135 47.0395 122.768 46.8775 123.333 46.5535C123.897 46.2295 124.344 45.7925 124.673 45.2377C125.002 44.683 125.164 44.0644 125.164 43.377C125.164 42.6897 125.002 42.076 124.673 41.531C124.344 40.9861 123.897 40.5491 123.333 40.23H123.328ZM122.994 44.3688C122.847 44.6535 122.631 44.8744 122.356 45.0365C122.081 45.1936 121.767 45.277 121.408 45.277C121.05 45.277 120.75 45.1985 120.48 45.0365C120.21 44.8794 119.999 44.6535 119.842 44.3688C119.69 44.084 119.611 43.76 119.611 43.3918C119.611 43.0235 119.69 42.6995 119.842 42.4197C119.994 42.1398 120.21 41.9189 120.48 41.7618C120.75 41.6047 121.06 41.5212 121.408 41.5212C121.757 41.5212 122.081 41.5998 122.351 41.7618C122.621 41.9189 122.832 42.1398 122.989 42.4197C123.141 42.6995 123.22 43.0235 123.22 43.3918C123.22 43.76 123.146 44.084 122.994 44.3688Z" fill="#FFFD73"/>
<path d="M131.208 40.5148C131.031 40.3429 130.83 40.1858 130.594 40.0631C130.191 39.8618 129.735 39.7587 129.209 39.7587C128.581 39.7587 128.016 39.9109 127.516 40.2153C127.015 40.5197 126.622 40.9321 126.337 41.4525C126.053 41.9729 125.91 42.562 125.91 43.2199C125.91 43.8778 126.053 44.4719 126.337 45.0021C126.622 45.5323 127.015 45.9496 127.516 46.254C128.016 46.5584 128.581 46.7106 129.209 46.7106C129.72 46.7106 130.177 46.6124 130.579 46.416C130.815 46.2982 131.016 46.146 131.193 45.9693V46.5682C131.193 47.0985 131.021 47.5158 130.677 47.8153C130.334 48.1147 129.867 48.262 129.278 48.262C128.807 48.262 128.404 48.1786 128.07 48.0067C127.737 47.8398 127.437 47.5943 127.167 47.2752L125.964 48.478C126.303 48.9592 126.755 49.3372 127.324 49.6023C127.894 49.8674 128.551 50 129.293 50C130.034 50 130.692 49.8576 131.262 49.568C131.831 49.2783 132.278 48.8757 132.602 48.3602C132.926 47.8447 133.088 47.2359 133.088 46.5437V39.9109H131.208V40.5197V40.5148ZM131.095 44.138C130.952 44.4031 130.751 44.6093 130.496 44.7615C130.24 44.9137 129.936 44.9874 129.592 44.9874C129.249 44.9874 128.939 44.9088 128.679 44.7566C128.419 44.6044 128.218 44.3933 128.07 44.1282C127.928 43.8631 127.854 43.5636 127.854 43.2396C127.854 42.9155 127.928 42.6013 128.07 42.3362C128.213 42.0711 128.419 41.8649 128.679 41.7127C128.939 41.5654 129.244 41.4869 129.592 41.4869C129.941 41.4869 130.24 41.5605 130.496 41.7127C130.751 41.8649 130.952 42.0662 131.095 42.3264C131.237 42.5866 131.311 42.891 131.311 43.2396C131.311 43.5881 131.237 43.8778 131.095 44.1429V44.138Z" fill="#FFFD73"/>
<path d="M137.688 44.3442L136.088 39.906H134.031L136.682 46.2982L135.017 49.8233H137.03L138.302 46.9561L141.415 39.906H139.343L137.688 44.3442Z" fill="#FFFD73"/>
</svg>
